<svg xmlns="http://www.w3.org/2000/svg" viewBox="0 0 512 512" role="img" aria-labelledby="title desc">
  <title id="title">Citrus linework revised deep perspective</title>
  <desc id="desc">A stronger perspective version of the citrus linework mark with a hollow center and six extended bars.</desc>
  <rect width="512" height="512" rx="112" fill="#1976C5"/>
  <g transform="rotate(-12 256 256) translate(256 256) skewX(-10) translate(-256 -256)">
    <circle cx="256" cy="256" r="154" fill="none" stroke="#FFD23F" stroke-width="28"/>
    <g fill="none" stroke="#FFD23F" stroke-width="25" stroke-linecap="round" stroke-linejoin="round">
      <path d="M256 256c-33-39-48-87-37-140"/>
      <path d="M256 256c-33-39-48-87-37-140" transform="rotate(60 256 256)"/>
      <path d="M256 256c-33-39-48-87-37-140" transform="rotate(120 256 256)"/>
      <path d="M256 256c-33-39-48-87-37-140" transform="rotate(180 256 256)"/>
      <path d="M256 256c-33-39-48-87-37-140" transform="rotate(240 256 256)"/>
      <path d="M256 256c-33-39-48-87-37-140" transform="rotate(300 256 256)"/>
    </g>
    <circle cx="256" cy="256" r="21" fill="#1976C5" stroke="#FFD23F" stroke-width="12"/>
  </g>
</svg>
