<svg xmlns="http://www.w3.org/2000/svg" viewBox="0 0 1200 860" role="img" aria-labelledby="title desc">
  <title id="title">Citrus inspired logo variants</title>
  <desc id="desc">Four logo directions inspired by the attached citrus slice reference, using only the existing blue and yellow theme colors.</desc>
  <rect width="1200" height="860" fill="#1976C5"/>
  <text x="72" y="70" fill="#FFD23F" font-family="Arial, Microsoft YaHei, sans-serif" font-size="28" font-weight="700" letter-spacing="3">酸橙云 / CITRUS STUDY</text>
  <text x="72" y="106" fill="#FFD23F" font-family="Arial, Microsoft YaHei, sans-serif" font-size="16" opacity="0.82">REFERENCE: CITRUS SLICE · CLOUD CORE</text>
  <text x="1010" y="86" fill="#FFD23F" font-family="Arial, Microsoft YaHei, sans-serif" font-size="14">#1976C5</text>
  <circle cx="990" cy="80" r="10" fill="#1976C5" stroke="#FFD23F" stroke-width="2"/>
  <text x="1010" y="112" fill="#FFD23F" font-family="Arial, Microsoft YaHei, sans-serif" font-size="14">#FFD23F</text>
  <circle cx="990" cy="106" r="10" fill="#FFD23F"/>

  <g transform="translate(72 150)">
    <rect width="500" height="300" rx="32" fill="#1976C5" stroke="#FFD23F" stroke-width="3"/>
    <g transform="translate(122 22) scale(.52)">
      <circle cx="256" cy="256" r="154" fill="none" stroke="#FFD23F" stroke-width="28"/>
      <g fill="#FFD23F">
        <path d="M256 256c-25-32-39-70-35-105 22-7 48-7 70 0 4 35-10 73-35 105Z"/>
        <path d="M256 256c-25-32-39-70-35-105 22-7 48-7 70 0 4 35-10 73-35 105Z" transform="rotate(60 256 256)"/>
        <path d="M256 256c-25-32-39-70-35-105 22-7 48-7 70 0 4 35-10 73-35 105Z" transform="rotate(120 256 256)"/>
        <path d="M256 256c-25-32-39-70-35-105 22-7 48-7 70 0 4 35-10 73-35 105Z" transform="rotate(180 256 256)"/>
        <path d="M256 256c-25-32-39-70-35-105 22-7 48-7 70 0 4 35-10 73-35 105Z" transform="rotate(240 256 256)"/>
        <path d="M256 256c-25-32-39-70-35-105 22-7 48-7 70 0 4 35-10 73-35 105Z" transform="rotate(300 256 256)"/>
      </g>
      <circle cx="256" cy="256" r="24" fill="#1976C5" stroke="#FFD23F" stroke-width="12"/>
    </g>
    <text x="32" y="267" fill="#FFD23F" font-family="Arial, Microsoft YaHei, sans-serif" font-size="18" font-weight="700" letter-spacing="2">01 · SLICE / 切面</text>
  </g>

  <g transform="translate(628 150)">
    <rect width="500" height="300" rx="32" fill="#1976C5" stroke="#FFD23F" stroke-width="3"/>
    <g transform="translate(122 22) scale(.52)">
      <circle cx="256" cy="256" r="154" fill="none" stroke="#FFD23F" stroke-width="24"/>
      <g fill="#FFD23F">
        <path d="M256 256c-20-27-30-60-26-91 16-5 36-5 52 0 4 31-6 64-26 91Z"/>
        <path d="M256 256c-20-27-30-60-26-91 16-5 36-5 52 0 4 31-6 64-26 91Z" transform="rotate(45 256 256)"/>
        <path d="M256 256c-20-27-30-60-26-91 16-5 36-5 52 0 4 31-6 64-26 91Z" transform="rotate(90 256 256)"/>
        <path d="M256 256c-20-27-30-60-26-91 16-5 36-5 52 0 4 31-6 64-26 91Z" transform="rotate(135 256 256)"/>
        <path d="M256 256c-20-27-30-60-26-91 16-5 36-5 52 0 4 31-6 64-26 91Z" transform="rotate(180 256 256)"/>
        <path d="M256 256c-20-27-30-60-26-91 16-5 36-5 52 0 4 31-6 64-26 91Z" transform="rotate(225 256 256)"/>
        <path d="M256 256c-20-27-30-60-26-91 16-5 36-5 52 0 4 31-6 64-26 91Z" transform="rotate(270 256 256)"/>
        <path d="M256 256c-20-27-30-60-26-91 16-5 36-5 52 0 4 31-6 64-26 91Z" transform="rotate(315 256 256)"/>
      </g>
      <circle cx="256" cy="256" r="18" fill="#1976C5" stroke="#FFD23F" stroke-width="10"/>
    </g>
    <text x="32" y="267" fill="#FFD23F" font-family="Arial, Microsoft YaHei, sans-serif" font-size="18" font-weight="700" letter-spacing="2">02 · SEGMENTED / 细分瓣</text>
  </g>

  <g transform="translate(72 500)">
    <rect width="500" height="300" rx="32" fill="#1976C5" stroke="#FFD23F" stroke-width="3"/>
    <g transform="translate(122 22) scale(.52)">
      <circle cx="256" cy="256" r="154" fill="none" stroke="#FFD23F" stroke-width="26"/>
      <g fill="none" stroke="#FFD23F" stroke-width="24" stroke-linecap="round" stroke-linejoin="round">
        <path d="M256 256c-31-35-46-78-39-118"/>
        <path d="M256 256c-31-35-46-78-39-118" transform="rotate(60 256 256)"/>
        <path d="M256 256c-31-35-46-78-39-118" transform="rotate(120 256 256)"/>
        <path d="M256 256c-31-35-46-78-39-118" transform="rotate(180 256 256)"/>
        <path d="M256 256c-31-35-46-78-39-118" transform="rotate(240 256 256)"/>
        <path d="M256 256c-31-35-46-78-39-118" transform="rotate(300 256 256)"/>
      </g>
      <circle cx="256" cy="256" r="18" fill="#FFD23F"/>
    </g>
    <text x="32" y="267" fill="#FFD23F" font-family="Arial, Microsoft YaHei, sans-serif" font-size="18" font-weight="700" letter-spacing="2">03 · LINEWORK / 线稿</text>
  </g>

  <g transform="translate(628 500)">
    <rect width="500" height="300" rx="32" fill="#1976C5" stroke="#FFD23F" stroke-width="3"/>
    <g transform="translate(122 22) scale(.52)">
      <path d="M126 360h260c42 0 76-34 76-76s-34-76-76-76c-10 0-20 2-29 6-12-55-61-92-120-92-58 0-106 37-122 90-9-3-18-4-28-4-44 0-80 36-80 80s36 72 80 72h39" fill="none" stroke="#FFD23F" stroke-width="28" stroke-linecap="round" stroke-linejoin="round"/>
      <circle cx="256" cy="256" r="76" fill="none" stroke="#FFD23F" stroke-width="16"/>
      <g fill="#FFD23F">
        <path d="M256 256c-12-16-18-35-15-53 9-3 21-3 30 0 3 18-3 37-15 53Z"/>
        <path d="M256 256c-12-16-18-35-15-53 9-3 21-3 30 0 3 18-3 37-15 53Z" transform="rotate(60 256 256)"/>
        <path d="M256 256c-12-16-18-35-15-53 9-3 21-3 30 0 3 18-3 37-15 53Z" transform="rotate(120 256 256)"/>
        <path d="M256 256c-12-16-18-35-15-53 9-3 21-3 30 0 3 18-3 37-15 53Z" transform="rotate(180 256 256)"/>
        <path d="M256 256c-12-16-18-35-15-53 9-3 21-3 30 0 3 18-3 37-15 53Z" transform="rotate(240 256 256)"/>
        <path d="M256 256c-12-16-18-35-15-53 9-3 21-3 30 0 3 18-3 37-15 53Z" transform="rotate(300 256 256)"/>
      </g>
      <circle cx="256" cy="256" r="13" fill="#1976C5" stroke="#FFD23F" stroke-width="8"/>
    </g>
    <text x="32" y="267" fill="#FFD23F" font-family="Arial, Microsoft YaHei, sans-serif" font-size="18" font-weight="700" letter-spacing="2">04 · CLOUD CORE / 云果核</text>
  </g>
</svg>
